<?xml version="1.0" standalone="no"?>
<!DOCTYPE svg PUBLIC "-//W3C//DTD SVG 20010904//EN"
 "http://www.w3.org/TR/2001/REC-SVG-20010904/DTD/svg10.dtd">
<svg version="1.0" xmlns="http://www.w3.org/2000/svg"
 width="300.000000pt" height="359.000000pt" viewBox="0 0 300.000000 359.000000"
 preserveAspectRatio="xMidYMid meet">

<g transform="translate(0.000000,359.000000) scale(0.100000,-0.100000)"
fill="#000000" stroke="none">
<path d="M1216 3414 c-21 -10 -46 -12 -95 -8 -67 6 -68 6 -98 -26 -26 -28 -33
-31 -51 -21 -34 18 -51 13 -93 -30 -40 -41 -40 -41 -97 -35 -69 8 -83 0 -91
-50 -5 -31 -13 -42 -36 -52 -53 -23 -60 -28 -75 -60 -8 -17 -23 -37 -33 -44
-15 -11 -16 -18 -6 -47 11 -32 10 -36 -16 -56 -30 -25 -75 -40 -147 -50 -62
-9 -79 -23 -98 -81 -13 -44 -20 -50 -60 -65 -40 -15 -45 -20 -48 -50 -1 -19
-10 -49 -20 -66 -15 -31 -15 -35 1 -62 22 -38 21 -54 -3 -76 -20 -18 -20 -31
-20 -580 0 -547 1 -563 20 -588 21 -27 26 -63 11 -86 -13 -20 9 -60 48 -89 20
-14 31 -31 31 -46 0 -17 11 -30 36 -45 32 -19 35 -25 29 -49 -18 -63 9 -102
71 -102 28 0 38 -7 64 -45 28 -40 35 -45 70 -45 51 0 92 -19 86 -39 -3 -9 -8
-70 -12 -136 l-6 -120 -71 -138 c-74 -146 -122 -203 -189 -224 -32 -11 -32
-11 -6 -12 15 -1 46 6 68 15 43 17 88 77 153 201 17 35 35 63 38 63 3 0 2 -23
-2 -52 -5 -29 -7 -54 -5 -56 13 -12 40 118 52 253 17 185 46 368 74 457 10 34
18 63 16 65 -1 1 -27 -2 -57 -8 -102 -22 -186 24 -229 123 -19 44 -22 65 -18
139 3 72 9 97 35 150 35 71 100 152 114 143 5 -3 -9 -26 -32 -52 -134 -151
-139 -372 -11 -458 48 -33 99 -38 162 -17 48 16 54 22 65 58 7 22 38 123 69
225 l56 184 -25 24 c-45 41 -29 123 28 141 29 10 36 18 42 48 12 65 46 121
118 196 71 72 88 83 192 113 17 5 34 19 40 32 8 19 18 22 61 22 43 0 59 -6
106 -40 31 -22 73 -62 93 -90 55 -75 102 -61 61 18 -38 72 -174 148 -261 144
-42 -2 -47 0 -35 11 8 8 34 19 57 26 24 6 47 21 53 31 7 12 26 22 51 26 27 5
46 15 59 34 11 15 31 31 46 34 14 4 48 22 76 41 56 39 78 42 131 20 20 -8 47
-15 60 -15 30 0 85 -66 71 -85 -46 -62 -47 -65 -34 -90 8 -15 11 -42 7 -72 -6
-58 3 -79 40 -87 16 -4 63 -23 105 -44 l77 -37 -1 -47 c-1 -26 4 -54 11 -61
21 -26 43 -119 36 -154 l-6 -34 -27 40 c-38 56 -96 97 -171 121 -79 25 -136
25 -181 1 -78 -41 -94 -97 -78 -268 9 -92 9 -128 0 -148 -12 -27 -40 -32 -73
-15 -28 16 -23 -2 9 -33 71 -68 121 51 92 218 -16 95 -6 113 93 161 62 30 79
35 124 30 72 -6 138 -38 163 -78 32 -50 24 -135 -17 -185 -27 -34 -35 -38 -84
-41 -69 -4 -108 20 -163 101 -23 33 -47 57 -57 57 -21 0 -33 -16 -19 -25 5 -3
10 -21 10 -39 0 -47 45 -108 124 -167 75 -57 81 -66 71 -107 -9 -37 -152 -176
-245 -239 -41 -28 -110 -82 -153 -121 -42 -39 -98 -80 -124 -93 -42 -20 -52
-21 -99 -11 -84 17 -202 71 -274 126 -79 59 -98 82 -149 173 -61 111 -78 67
-20 -54 25 -53 51 -85 113 -143 159 -148 272 -268 305 -326 19 -33 42 -71 52
-86 11 -15 15 -29 11 -32 -4 -3 -95 -30 -202 -61 -190 -55 -208 -61 -199 -69
11 -9 195 19 289 43 58 16 164 43 235 61 72 17 164 41 205 52 41 11 104 23
140 25 61 5 71 3 140 -32 162 -82 351 -212 495 -342 82 -74 104 -88 85 -54
-34 64 -152 176 -312 296 l-98 73 26 16 c14 10 30 28 36 41 13 29 46 42 131
51 56 6 66 11 102 50 51 53 77 66 119 59 40 -8 70 16 61 47 -5 14 5 31 39 66
96 97 106 110 106 137 0 16 11 36 30 53 16 15 33 42 36 60 5 22 16 38 35 48
l29 15 0 762 c0 887 12 800 -117 863 -62 31 -81 46 -93 72 -10 24 -29 41 -63
59 -48 24 -49 25 -43 61 20 116 22 108 -26 136 -57 33 -100 42 -138 26 -38
-16 -75 5 -83 48 -8 38 -31 61 -69 69 -16 3 -44 21 -62 39 -34 35 -73 54 -111
54 -14 0 -40 8 -60 17 -33 16 -37 16 -64 0 -42 -25 -68 -22 -75 8 -4 14 -16
27 -29 30 -22 5 -484 0 -522 -6 -11 -2 -34 0 -51 3 -19 4 -41 1 -58 -8z m800
-1909 c-11 -8 -27 -15 -35 -14 -9 0 -2 7 14 14 39 18 45 18 21 0z m-135 -594
c-17 -79 -49 -137 -102 -185 -115 -104 -277 -80 -352 52 -16 29 -27 55 -24 59
3 3 12 -11 21 -30 32 -79 118 -137 203 -137 103 0 208 99 234 220 15 74 19 84
25 77 3 -3 1 -28 -5 -56z"/>
<path d="M1100 2040 c0 -73 64 -144 178 -197 43 -20 62 -24 100 -19 26 4 59 7
75 8 28 1 36 19 15 35 -7 5 -42 15 -77 22 -103 20 -149 49 -184 116 -11 20
-16 24 -17 13 0 -27 -15 -22 -49 17 -17 19 -33 35 -36 35 -3 0 -5 -14 -5 -30z"/>
<path d="M1255 2000 c4 -6 39 -27 78 -46 40 -20 68 -32 62 -27 -17 17 -147 84
-140 73z"/>
<path d="M1836 1642 c12 -9 42 -34 66 -54 25 -21 51 -38 57 -38 7 0 -18 25
-56 55 -37 30 -72 55 -78 55 -5 0 0 -8 11 -18z"/>
<path d="M1399 1624 c-20 -24 1 -49 42 -49 19 0 40 -4 47 -8 8 -6 12 -1 12 17
0 46 -72 75 -101 40z"/>
<path d="M1564 1518 c-10 -12 -13 -18 -6 -14 8 5 19 -1 30 -14 11 -14 23 -19
34 -15 19 8 33 39 23 55 -11 18 -61 11 -81 -12z"/>
<path d="M1315 1471 c-27 -4 -69 -17 -92 -29 -22 -12 -59 -24 -81 -28 -43 -7
-48 -27 -11 -39 10 -4 31 -31 45 -61 14 -30 35 -60 45 -67 10 -6 19 -15 19
-20 0 -4 -4 -5 -10 -2 -5 3 -10 4 -10 1 0 -2 33 -22 74 -45 40 -22 87 -52 104
-66 31 -26 52 -34 34 -12 -8 9 8 12 76 12 51 0 87 4 88 10 0 6 4 37 8 70 6 50
4 70 -15 120 -23 63 -66 115 -94 115 -9 0 -28 9 -43 20 -33 24 -71 30 -137 21z"/>
<path d="M814 1317 c3 -10 6 -23 6 -28 0 -5 5 -9 10 -9 14 0 12 13 -6 36 -14
17 -15 17 -10 1z"/>
</g>
</svg>
