<?xml version="1.0" standalone="no"?>
<!DOCTYPE svg PUBLIC "-//W3C//DTD SVG 20010904//EN"
 "http://www.w3.org/TR/2001/REC-SVG-20010904/DTD/svg10.dtd">
<svg version="1.0" xmlns="http://www.w3.org/2000/svg"
 width="254.000000pt" height="198.000000pt" viewBox="0 0 254.000000 198.000000"
 preserveAspectRatio="xMidYMid meet">
<metadata>
Created by potrace 1.16, written by Peter Selinger 2001-2019
</metadata>
<g transform="translate(0.000000,198.000000) scale(0.100000,-0.100000)"
fill="#000000" stroke="none">
<path d="M1895 1881 c-115 -19 -245 -176 -245 -297 0 -21 -9 -39 -31 -60 -37
-35 -77 -100 -90 -149 -10 -35 -10 -35 -65 -35 -54 0 -55 0 -52 -27 3 -25 8
-29 48 -34 l45 -6 -38 -1 c-47 -2 -42 -12 25 -46 88 -45 88 -46 97 -134 5 -44
11 -84 15 -90 3 -6 1 -12 -5 -14 -7 -2 2 -29 23 -68 18 -36 37 -63 42 -62 5 2
13 -2 17 -10 10 -15 12 -5 10 47 -2 41 6 50 59 65 62 17 113 15 146 -7 16 -10
31 -17 34 -16 10 5 40 -8 40 -18 0 -5 8 -9 18 -9 12 0 27 17 42 51 24 50 24
51 5 65 -10 8 -42 14 -69 14 -57 1 -47 13 18 25 22 3 67 18 100 31 88 35 105
64 108 182 2 60 7 92 14 92 12 0 40 86 36 108 -2 6 2 12 8 12 13 0 2 73 -11
78 -5 2 -9 27 -9 55 0 74 -28 145 -76 193 -63 64 -143 84 -259 65z m91 -528
c7 -37 24 -45 25 -10 1 19 2 18 14 -9 8 -17 23 -34 34 -37 15 -4 21 -13 21
-34 0 -20 -3 -24 -9 -14 -5 7 -14 10 -20 7 -6 -4 -11 0 -12 11 0 18 -11 -2
-37 -69 -6 -15 -20 -32 -31 -38 -17 -9 -20 -8 -14 7 5 12 0 10 -16 -6 -22 -22
-42 -24 -48 -4 -2 6 15 30 38 54 22 23 34 39 24 35 -9 -3 -23 -6 -31 -6 -9 0
-13 -4 -9 -9 3 -6 -7 -6 -27 0 -18 5 -34 9 -35 9 -2 0 -3 7 -3 15 0 8 -4 15
-9 15 -5 0 -11 -7 -15 -15 -3 -8 -10 -15 -15 -15 -6 0 -8 7 -4 15 3 9 -2 22
-13 30 -11 8 -14 14 -6 15 6 0 12 7 12 15 0 8 6 15 13 16 10 0 10 2 0 6 -39
15 10 63 64 63 13 0 28 9 35 20 12 19 13 19 40 -7 15 -15 31 -41 34 -60z"/>
<path d="M1127 1647 c-8 -12 -18 -37 -21 -55 -4 -17 -14 -32 -21 -32 -8 0 -18
-7 -23 -16 -8 -14 -10 -12 -16 10 -3 14 -4 38 -1 54 l5 27 -14 -30 c-9 -16
-15 -39 -16 -50 0 -11 -7 -38 -15 -60 -8 -22 -14 -66 -15 -97 0 -36 -4 -58
-11 -58 -6 0 -9 7 -6 14 4 10 1 13 -9 9 -7 -3 -14 -9 -14 -14 0 -5 -5 -9 -11
-9 -6 0 -9 7 -5 15 3 8 2 25 -3 37 -7 20 -9 19 -21 -16 l-12 -38 -189 4 c-132
4 -190 2 -193 -6 -3 -6 -12 -2 -22 12 -9 12 -27 22 -41 22 -23 0 -25 -3 -19
-31 3 -17 6 -40 6 -50 0 -11 6 -19 14 -19 15 0 29 -27 21 -40 -10 -15 32 -17
130 -4 131 17 180 16 90 -3 -38 -8 -80 -15 -92 -16 -25 -2 -29 -27 -14 -102 8
-40 8 -40 16 -12 5 19 12 26 22 23 12 -5 14 1 10 29 -3 19 0 41 7 49 12 16
160 34 169 20 2 -5 8 -35 11 -66 7 -50 5 -58 -9 -58 -11 0 -15 -5 -11 -15 3
-9 -1 -18 -9 -21 -17 -7 -20 -34 -4 -34 5 0 7 5 3 11 -5 8 -1 8 14 0 24 -13
38 -53 14 -44 -10 4 -13 2 -8 -5 15 -24 -5 -32 -35 -15 -37 22 -37 31 4 36
l32 4 -35 2 c-24 1 -31 4 -21 10 9 6 11 18 7 35 -7 29 -27 34 -45 12 -10 -12
-9 -14 6 -10 17 5 20 -8 14 -69 -1 -4 -11 -1 -24 8 -29 18 -36 13 -29 -22 5
-24 6 -25 18 -8 13 17 14 17 20 -1 4 -10 9 -22 11 -27 3 -4 1 -7 -4 -6 -21 4
-43 -2 -43 -11 0 -5 16 -10 35 -10 19 0 35 -4 35 -10 0 -5 -7 -7 -15 -4 -8 4
-17 -1 -21 -10 -3 -9 -12 -16 -19 -16 -22 0 -45 -82 -46 -160 0 -41 -4 -84 -8
-94 -4 -11 -30 -32 -56 -46 -27 -15 -56 -38 -65 -52 -39 -63 -78 -108 -113
-130 -21 -13 -51 -33 -67 -45 -15 -13 -32 -23 -37 -23 -6 0 -21 -9 -34 -20
-39 -32 -43 -35 -69 -48 l-25 -13 25 6 c116 26 149 35 178 45 17 7 32 16 32
21 0 5 9 9 19 9 11 0 23 5 26 10 3 6 22 10 41 10 42 0 43 -12 13 -108 -31 -95
-62 -153 -105 -195 l-38 -37 286 0 287 0 4 103 3 102 2 -102 2 -103 98 0 c86
0 101 3 117 20 23 26 45 26 45 0 0 -20 7 -20 312 -20 171 0 308 3 305 6 -4 4
-14 8 -24 9 -10 1 -36 9 -57 19 -30 14 -36 20 -25 27 8 5 28 9 44 9 28 1 29 1
10 13 -11 6 -33 12 -50 12 -22 0 -29 4 -26 15 2 8 4 23 5 32 0 9 11 22 23 29
13 7 23 16 23 21 0 11 -18 10 -22 -2 -2 -5 -17 -2 -35 7 -18 8 -31 18 -29 22
3 4 -9 8 -27 9 -17 2 -36 7 -42 12 -7 6 -29 8 -48 6 -20 -3 -39 -1 -42 4 -4 6
2 7 12 3 15 -5 16 -3 6 8 -21 22 -15 34 7 14 17 -15 20 -16 20 -3 0 25 -38 29
-54 6 -20 -28 -9 -51 21 -45 15 3 22 0 20 -7 -2 -6 -13 -12 -25 -14 -33 -5
-159 99 -146 120 10 15 -33 53 -138 124 -104 69 -112 80 -144 187 -16 52 -17
227 -2 227 5 0 6 -4 3 -10 -8 -12 35 -13 54 -1 21 14 69 -7 74 -32 l4 -22 8
23 c7 21 9 20 56 -25 38 -37 47 -52 43 -70 -6 -22 2 -28 33 -24 9 1 12 -11 8
-43 -4 -44 -4 -44 36 -60 37 -15 48 -27 53 -58 1 -7 5 -19 10 -27 7 -10 10
-10 16 -1 6 9 13 3 24 -19 9 -17 20 -31 24 -31 4 1 28 31 53 69 l46 68 -31 9
c-23 7 -34 18 -42 44 -8 22 -8 37 -2 41 5 3 9 9 9 13 -3 21 2 26 27 26 32 0
72 -25 72 -46 0 -27 21 -14 36 22 15 36 15 37 -17 70 -18 19 -29 34 -25 34 4
0 -15 17 -43 38 -62 46 -372 228 -383 225 -15 -5 -59 17 -53 27 4 6 12 7 18 4
7 -4 -9 15 -35 41 -35 35 -48 55 -48 76 l0 29 -72 0 c-48 1 -68 4 -58 10 28
16 198 41 237 34 32 -5 42 -2 62 20 13 14 27 23 32 21 4 -3 11 0 15 6 4 8 3 9
-4 5 -8 -4 -12 0 -12 10 0 14 -3 15 -12 6 -14 -14 -42 -16 -33 -3 3 5 1 12 -5
16 -20 12 -10 27 15 23 39 -8 19 10 -25 22 -58 16 -90 5 -90 -30 0 -16 7 -36
16 -44 8 -9 14 -16 12 -17 -2 -1 -33 -2 -69 -3 -59 -2 -66 0 -61 16 2 10 8 18
13 18 5 0 6 7 2 16 -4 11 -1 15 13 12 12 -2 18 2 16 10 -1 8 2 11 7 7 12 -7 3
-35 -10 -35 -5 0 -9 -7 -9 -15 0 -10 10 -15 33 -15 31 0 33 2 29 29 -2 17 -12
37 -22 46 -16 15 -19 15 -34 0 -10 -10 -23 -14 -34 -10 -15 6 -15 7 3 17 11 6
22 15 25 19 3 5 18 2 32 -5 l26 -14 16 77 c27 135 28 139 17 115 -11 -25 -31
-40 -31 -24 0 6 -4 9 -9 6 -4 -3 -6 10 -4 29 4 41 1 43 -20 12z m-207 -1026
c0 -4 -11 -25 -25 -45 -17 -25 -20 -36 -11 -36 23 0 39 -28 32 -56 -4 -14 -26
-46 -49 -71 -39 -41 -43 -43 -44 -21 -1 12 4 33 12 45 11 16 11 21 3 18 -20
-7 -38 9 -40 37 -2 20 -9 28 -30 32 -15 3 -28 11 -28 17 0 7 -7 17 -16 24 -13
9 -14 16 -6 31 11 18 11 17 12 -6 1 -24 1 -24 14 5 12 28 13 29 18 7 3 -12 2
-25 -3 -28 -5 -3 -2 -12 6 -20 21 -21 82 -8 97 20 22 42 58 72 58 47z"/>
<path d="M336 1418 c-9 -5 -26 -8 -35 -5 -14 3 -17 -2 -17 -27 1 -30 -1 -31
-39 -31 -48 -1 -67 4 -60 16 6 8 -26 29 -44 29 -6 0 -11 -6 -11 -14 0 -10 7
-12 23 -8 21 5 21 5 4 -13 -19 -19 -32 -13 -40 20 -3 11 -5 -15 -4 -57 1 -42
5 -74 9 -72 4 3 8 -4 8 -15 0 -17 6 -21 31 -21 23 0 30 4 26 15 -5 12 0 11 29
-3 31 -14 33 -18 19 -28 -10 -8 -14 -18 -9 -25 4 -7 3 -10 -3 -6 -5 3 -19 0
-30 -8 -22 -15 -24 -43 -8 -99 5 -20 4 -31 -6 -36 -10 -7 -5 -16 19 -38 39
-36 72 -44 112 -24 31 15 40 32 18 32 -7 0 -4 6 7 12 29 15 64 54 74 80 4 13
7 73 7 133 -2 94 -5 116 -25 153 -28 51 -31 53 -55 40z"/>
<path d="M2515 528 c2 -61 -2 -73 -18 -59 -9 7 -12 -3 -12 -36 0 -31 -4 -47
-16 -54 -9 -4 -20 -5 -24 -1 -3 4 -6 3 -5 -3 5 -22 -1 -36 -12 -29 -6 4 -8 3
-4 -4 3 -5 2 -12 -4 -14 -14 -5 4 -29 24 -32 9 -1 16 -6 16 -12 0 -11 -21 -13
-35 -4 -5 4 -18 10 -27 13 -20 7 -15 -17 10 -46 21 -24 27 -93 9 -100 -10 -4
-13 -15 -10 -34 4 -21 3 -25 -6 -17 -7 6 -13 20 -14 32 0 11 -4 19 -8 16 -4
-2 -13 4 -19 13 -10 16 -11 16 -5 -2 4 -11 10 -50 12 -87 l6 -68 83 0 84 0 0
290 c0 230 -3 290 -13 290 -9 0 -12 -16 -12 -52z"/>
</g>
</svg>
