<?xml version="1.0" standalone="no"?>
<!DOCTYPE svg PUBLIC "-//W3C//DTD SVG 20010904//EN"
 "http://www.w3.org/TR/2001/REC-SVG-20010904/DTD/svg10.dtd">
<svg version="1.0" xmlns="http://www.w3.org/2000/svg"
 width="290.000000pt" height="174.000000pt" viewBox="0 0 290.000000 174.000000"
 preserveAspectRatio="xMidYMid meet">
<metadata>
Created by potrace 1.16, written by Peter Selinger 2001-2019
</metadata>
<g transform="translate(0.000000,174.000000) scale(0.100000,-0.100000)"
fill="#000000" stroke="none">
<path d="M0 870 l0 -870 573 0 574 0 11 38 c5 20 11 62 12 92 0 30 5 73 9 95
l9 40 2 -35 c1 -19 5 -46 9 -60 5 -16 -1 -49 -16 -94 -13 -38 -23 -71 -23 -73
0 -2 46 -3 103 -3 l102 1 58 54 c32 30 53 55 46 55 -7 0 -5 8 6 20 10 11 15
23 10 28 -4 4 -10 1 -12 -5 -8 -23 -25 -14 -18 9 6 17 4 20 -10 14 -10 -4 -3
10 18 33 20 22 39 56 43 76 3 20 8 34 10 32 2 -2 9 -39 15 -82 10 -72 9 -80
-7 -92 -10 -7 -14 -16 -10 -20 4 -5 19 6 32 22 26 33 59 36 100 8 13 -8 28
-12 33 -9 5 4 16 -3 25 -15 8 -12 19 -18 24 -15 5 3 21 -3 35 -14 14 -11 29
-20 33 -20 22 0 114 -45 114 -56 0 -16 23 -24 70 -24 29 0 42 5 50 20 6 11 9
24 6 28 -3 5 22 14 54 20 65 14 76 23 62 49 -6 10 -17 69 -26 131 -21 141 -38
188 -29 80 4 -49 2 -78 -4 -78 -14 0 -173 151 -173 165 0 6 -14 26 -30 45 -28
32 -30 33 -24 10 4 -14 15 -37 25 -51 10 -15 28 -46 39 -70 11 -24 29 -59 40
-78 31 -50 18 -48 -30 6 -55 63 -100 128 -100 146 0 8 -6 20 -13 26 -8 6 -22
30 -33 53 -10 24 -23 46 -28 49 -5 4 2 12 15 19 12 7 32 21 43 31 25 24 115
69 137 69 22 0 32 -14 55 -75 22 -59 84 -156 96 -149 15 9 8 25 -26 68 -34 40
-76 124 -76 150 0 7 -6 21 -14 31 -13 18 -15 18 -30 2 -19 -19 -81 -23 -91 -7
-6 10 49 70 65 70 4 0 11 -7 14 -16 3 -9 13 -14 21 -11 9 4 29 -11 53 -38 22
-25 42 -45 45 -45 3 0 7 15 9 33 2 24 8 32 21 30 13 -1 17 4 12 15 -5 13 -2
12 15 -3 24 -22 26 -29 5 -21 -8 3 -15 0 -15 -7 0 -9 -3 -8 -9 1 -7 11 -10 10
-15 -3 -9 -25 -7 -47 4 -40 13 8 13 -1 0 -25 -8 -15 1 -13 51 12 37 19 82 32
119 35 33 3 60 10 60 14 0 5 5 9 11 9 17 0 91 94 132 167 20 36 22 73 5 73 -8
0 -8 3 -2 9 5 6 43 13 84 18 67 7 75 10 78 31 2 12 10 22 18 22 10 0 14 -8 12
-22 -3 -21 2 -23 56 -30 61 -8 86 -21 86 -44 0 -10 13 -14 45 -14 l45 0 0 415
0 415 -189 0 c-104 0 -201 -4 -215 -10 -17 -6 -26 -6 -26 0 0 6 -10 10 -22 9
-13 0 -17 -3 -11 -6 7 -2 13 -11 13 -18 0 -7 -6 -16 -13 -18 -6 -3 -3 -6 8 -7
11 -1 29 -4 40 -6 11 -3 28 -5 37 -5 9 0 22 -7 29 -15 6 -8 17 -14 24 -14 6 0
43 -29 80 -65 38 -36 64 -65 59 -65 -6 0 -20 9 -32 20 -12 11 -26 20 -31 20
-6 0 -15 9 -20 19 -6 10 -32 32 -58 47 -43 26 -57 29 -135 29 -49 0 -88 3 -88
6 0 7 -87 4 -153 -6 -21 -3 -49 -12 -62 -21 -13 -9 -32 -13 -42 -10 -12 4 -30
-6 -55 -29 -43 -41 -52 -43 -43 -12 10 32 52 65 97 77 42 12 53 30 13 22 -18
-3 -25 0 -25 11 0 12 -18 15 -112 13 -91 -1 -119 3 -143 16 -28 17 -82 18
-713 18 l-683 0 7 -62 c5 -52 11 -67 33 -83 72 -55 77 -89 5 -45 -33 21 -36
21 -48 5 -11 -15 -14 -8 -19 56 -8 107 -18 129 -61 129 -23 0 -46 -9 -68 -27
-64 -53 -63 -52 -65 -142 -1 -47 -2 -91 -2 -97 -1 -6 -19 -14 -41 -18 -44 -7
-46 -9 -55 -78 -3 -27 -11 -48 -16 -48 -6 0 -17 17 -26 37 -31 76 3 227 73
318 19 25 34 47 34 50 0 3 -40 5 -90 5 l-90 0 0 -870z m2365 681 c6 -1 21 -18
35 -38 14 -20 40 -52 59 -70 25 -25 30 -33 17 -33 -9 0 -15 -4 -11 -9 3 -5 1
-12 -4 -16 -6 -3 -8 -12 -4 -20 3 -8 1 -15 -4 -15 -5 0 -18 -6 -29 -14 -17
-13 -16 -14 17 -7 35 8 35 8 35 -25 -1 -25 -6 -34 -18 -34 -11 0 -15 -5 -12
-15 4 -9 0 -15 -9 -15 -8 0 -17 -9 -20 -21 -5 -18 -2 -20 21 -14 20 5 24 4 16
-5 -7 -6 -22 -10 -35 -8 -18 2 -24 9 -24 27 0 13 -7 26 -15 28 -12 4 -12 3 -2
-5 8 -5 14 -13 14 -17 0 -8 -22 -25 -34 -25 -5 0 -8 7 -8 15 0 8 -8 19 -18 24
-23 12 -176 16 -226 6 -28 -6 -40 -4 -47 6 -6 10 -9 8 -9 -10 0 -42 -15 -12
-25 52 -11 65 -25 81 -42 45 -9 -20 -11 -16 -8 22 2 25 7 56 13 70 13 32 74
63 177 90 131 35 149 38 200 31z m-1712 -107 c12 3 16 3 10 0 -18 -8 -16 -27
2 -20 8 3 28 1 43 -5 70 -27 320 -88 340 -82 12 3 28 1 35 -5 6 -5 29 -15 50
-22 34 -11 39 -10 55 10 24 29 67 20 59 -12 -8 -29 13 -46 93 -73 57 -19 76
-22 95 -13 37 17 88 2 125 -37 24 -25 54 -42 100 -56 36 -11 85 -31 110 -44
l45 -24 -35 6 c-19 3 -53 12 -74 20 -39 13 -39 13 -21 -7 10 -11 26 -20 37
-20 11 0 18 -7 18 -18 0 -19 43 -63 73 -75 18 -7 19 -27 2 -39 -6 -5 -5 -12 5
-17 9 -7 17 -6 21 1 4 6 12 7 19 3 8 -5 9 -10 1 -18 -16 -16 -14 -37 3 -37 16
0 66 -56 66 -74 0 -7 -11 -23 -25 -36 -22 -20 -30 -22 -81 -16 -57 7 -86 17
-116 43 -15 14 -15 16 4 35 18 18 19 20 2 32 -9 7 -14 18 -10 24 5 8 0 12 -13
12 -28 0 -37 -20 -12 -27 27 -7 27 -23 1 -23 -23 0 -83 34 -74 42 7 8 -25 70
-45 86 -10 8 -34 11 -63 9 -27 -2 -48 -3 -48 -1 0 1 -3 10 -6 18 -5 12 -2 15
12 10 14 -4 12 0 -6 15 -14 11 -48 23 -79 27 -39 5 -59 13 -75 31 -28 33 -79
60 -84 44 -4 -13 -22 -15 -22 -2 0 5 8 19 18 31 18 22 19 22 51 5 27 -13 39
-15 58 -6 19 9 22 15 14 28 -5 10 -9 23 -9 28 0 6 -21 16 -48 23 -27 7 -148
42 -269 77 -121 35 -268 77 -327 94 -59 16 -117 35 -129 41 -19 11 -20 12 -3
25 15 10 24 10 52 -2 18 -8 43 -11 55 -9z m1967 -248 c0 -2 3 -13 6 -23 5 -15
4 -15 -5 -3 -5 8 -13 11 -17 7 -4 -3 -1 -13 6 -22 7 -8 10 -21 7 -29 -4 -10
-1 -13 9 -10 50 15 49 15 34 24 -8 6 -10 10 -5 10 6 0 17 -5 25 -10 10 -6 11
-10 3 -10 -7 0 -13 -5 -13 -11 0 -5 4 -7 10 -4 5 3 18 2 27 -4 16 -8 15 -10
-7 -15 -14 -3 -47 -8 -75 -10 -27 -3 -57 -6 -65 -7 -8 -1 -18 -6 -21 -11 -6
-9 -76 -14 -84 -6 -11 11 20 60 47 74 16 8 26 19 23 23 -6 10 52 40 78 41 9 0
17 -2 17 -4z m-258 -13 c-10 -4 -10 -8 -1 -19 9 -11 13 -11 26 2 20 19 26 13
18 -19 -5 -17 -12 -24 -21 -20 -8 3 -14 0 -14 -7 0 -7 -8 -9 -20 -5 -23 7 -65
-15 -65 -35 0 -8 -9 -19 -20 -25 -49 -25 -56 -32 -50 -47 4 -9 19 -21 35 -28
20 -8 26 -17 23 -30 -6 -22 -65 -39 -71 -21 -2 7 -9 8 -22 1 -13 -7 -21 -7
-25 0 -3 5 -16 10 -28 10 -19 1 -16 6 22 39 24 21 40 40 35 44 -13 8 -154 -21
-154 -32 1 -12 36 -48 59 -60 12 -7 21 -15 18 -18 -6 -6 -47 17 -65 37 -12 13
-13 13 -8 -4 6 -16 4 -17 -9 -6 -17 14 -21 35 -5 25 6 -3 10 -1 10 4 0 6 -4
11 -9 11 -5 0 -13 10 -16 22 -5 15 -2 26 12 37 11 9 27 43 37 75 l18 59 21
-27 c15 -18 26 -23 36 -17 15 9 51 3 51 -9 0 -4 11 -11 26 -14 26 -7 108 30
98 45 -6 10 36 39 56 38 11 0 11 -2 2 -6z"/>
<path d="M2501 250 c7 -14 26 -44 42 -68 21 -29 31 -56 33 -85 2 -38 -1 -43
-28 -54 -17 -7 -39 -13 -49 -13 -11 0 -19 -7 -19 -15 0 -13 30 -15 210 -15
l210 0 0 115 c0 70 -4 115 -10 115 -5 0 -10 -4 -10 -10 0 -5 -6 -10 -14 -10
-8 0 -22 -8 -32 -17 -21 -22 -33 -23 -57 -7 -11 7 -30 9 -51 4 -46 -10 -56
-18 -56 -43 -1 -27 -36 -71 -49 -62 -6 3 -24 32 -41 64 -33 61 -103 151 -79
101z"/>
<path d="M1598 132 c10 -7 10 -15 2 -36 l-10 -28 -34 22 c-25 15 -36 17 -42 9
-4 -6 1 -16 10 -21 9 -5 16 -17 16 -28 0 -49 2 -50 169 -50 l156 0 -130 70
c-71 39 -134 70 -140 70 -5 0 -4 -4 3 -8z"/>
</g>
</svg>
