<?xml version="1.0" standalone="no"?>
<!DOCTYPE svg PUBLIC "-//W3C//DTD SVG 20010904//EN"
 "http://www.w3.org/TR/2001/REC-SVG-20010904/DTD/svg10.dtd">
<svg version="1.0" xmlns="http://www.w3.org/2000/svg"
 width="272.000000pt" height="185.000000pt" viewBox="0 0 272.000000 185.000000"
 preserveAspectRatio="xMidYMid meet">
<metadata>
Created by potrace 1.16, written by Peter Selinger 2001-2019
</metadata>
<g transform="translate(0.000000,185.000000) scale(0.100000,-0.100000)"
fill="#000000" stroke="none">
<path d="M2280 1839 c0 -36 68 -120 165 -204 19 -16 36 -37 38 -45 5 -20 30
97 29 135 -1 54 -4 70 -14 98 l-10 27 -104 0 c-66 0 -104 -4 -104 -11z"/>
<path d="M2554 1837 c-8 -8 9 -31 65 -88 42 -42 81 -84 88 -95 10 -15 12 1 12
89 l1 107 -77 0 c-47 -1 -82 -6 -89 -13z"/>
<path d="M432 1794 c-40 -24 -47 -38 -43 -84 1 -13 17 -51 52 -122 14 -28 11
-43 -4 -29 -8 6 -17 8 -21 4 -4 -4 -4 1 0 12 4 11 -5 4 -20 -15 -25 -33 -27
-41 -25 -130 2 -61 -2 -104 -10 -118 -21 -40 -6 -35 23 7 16 23 25 45 20 52
-4 7 -3 10 3 6 6 -4 16 6 23 23 15 35 103 119 140 132 l27 9 -26 28 c-25 27
-27 28 -39 10 -7 -11 -18 -19 -24 -19 -6 0 -4 7 4 18 26 29 58 109 58 145 0
37 -27 69 -71 86 -21 8 -34 5 -67 -15z"/>
<path d="M2063 1754 c-23 -23 -25 -31 -20 -76 4 -28 13 -61 22 -74 20 -32 19
-41 -10 -70 -25 -25 -25 -26 -7 -42 10 -10 22 -34 26 -54 4 -21 13 -43 20 -50
7 -7 11 -19 8 -27 -3 -8 0 -11 7 -7 7 4 9 2 5 -7 -3 -8 0 -18 5 -22 6 -3 9
-10 6 -15 -11 -18 -16 -82 -6 -75 6 3 11 21 11 38 0 18 4 38 9 46 5 8 8 -12 6
-50 -2 -35 -1 -58 2 -51 4 10 8 10 21 0 13 -11 15 -10 9 5 -4 11 0 33 8 50 8
18 16 54 17 80 3 40 7 49 26 54 13 3 25 3 28 1 2 -3 -10 -58 -27 -124 -46
-176 -48 -184 -37 -184 5 0 12 9 15 21 8 31 45 20 63 -18 14 -29 17 -31 27
-15 10 16 11 15 11 -3 0 -11 7 -42 16 -70 l16 -50 -6 45 c-9 75 -27 156 -31
138 -4 -16 -6 -16 -26 2 -11 11 -29 20 -39 20 -10 0 -18 5 -18 10 0 6 4 10 8
10 7 0 13 27 15 73 1 9 8 17 16 17 11 0 12 3 4 11 -18 18 7 129 29 129 5 0 6
5 2 12 -5 7 -11 5 -21 -7 -18 -25 -17 -11 3 28 l15 32 -20 -25 c-11 -14 -21
-28 -21 -32 0 -3 -9 -4 -21 -1 -17 5 -20 11 -14 32 17 64 17 108 1 114 -9 4
-15 3 -15 -1 4 -26 -2 -45 -11 -36 -8 8 -7 19 0 39 6 15 10 35 9 44 -1 9 1 24
6 34 11 25 -1 86 -21 108 -26 29 -89 25 -121 -7z"/>
<path d="M792 1747 c-22 -24 -30 -77 -12 -77 6 0 10 11 10 25 0 31 25 43 53
26 17 -11 22 -10 29 3 14 25 25 19 32 -16 4 -18 9 -45 12 -60 5 -22 3 -26 -12
-23 -11 2 -21 4 -24 4 -3 1 -6 11 -7 24 0 12 1 16 4 10 3 -7 11 -13 19 -13 8
0 11 6 7 16 -9 24 -48 13 -48 -14 0 -22 -22 -45 -36 -36 -14 8 -16 -36 -3 -53
12 -16 13 -15 14 15 0 34 6 38 30 22 13 -9 13 -12 -3 -24 -14 -11 -15 -15 -5
-19 8 -3 6 -6 -5 -6 -10 -1 -15 -5 -12 -11 4 -6 -5 -7 -24 -4 -28 6 -30 4 -36
-30 -4 -20 -4 -62 1 -94 4 -31 6 -65 5 -76 -2 -12 1 -16 9 -11 9 6 9 2 1 -13
-6 -11 -11 -29 -11 -39 1 -16 2 -16 12 2 14 24 40 45 50 39 3 -2 12 12 18 31
6 19 26 56 44 83 41 61 57 98 50 117 -9 22 -19 18 -34 -12 -11 -23 -14 -25
-17 -10 -3 10 -9 14 -16 10 -7 -4 -5 1 3 11 21 26 42 85 47 133 4 36 1 46 -22
68 -37 33 -93 34 -123 2z"/>
<path d="M1685 1740 c-26 -28 -37 -109 -19 -137 12 -20 12 -22 -6 -28 -11 -4
-25 -15 -31 -26 -5 -11 -15 -19 -22 -18 -51 6 -66 -28 -22 -51 16 -8 26 -24
29 -44 2 -17 9 -60 14 -96 5 -36 6 -69 2 -73 -13 -15 -27 15 -70 148 -23 75
-41 106 -55 95 -8 -6 -10 -23 -6 -47 6 -34 4 -39 -19 -50 l-25 -11 26 -1 c24
-1 27 -6 31 -43 3 -24 0 -46 -6 -50 -6 -4 -5 -12 3 -21 9 -11 9 -17 1 -22 -6
-4 -9 -13 -6 -20 2 -7 -3 -16 -12 -20 -13 -5 -14 -8 -3 -14 10 -7 9 -10 -3
-14 -9 -4 -16 -17 -16 -29 0 -43 -13 -51 -51 -31 -19 10 -35 19 -37 19 -2 1 4
25 14 53 10 33 22 51 33 52 13 0 12 3 -5 15 -19 13 -21 19 -12 57 5 23 14 52
20 63 7 15 7 28 0 40 -9 17 -11 16 -17 -11 -4 -17 -18 -65 -32 -108 -13 -44
-22 -81 -19 -84 8 -8 -43 -103 -59 -110 -8 -3 -12 -9 -9 -14 7 -12 -15 -51
-25 -44 -5 2 -12 25 -15 50 -4 25 -11 43 -17 40 -5 -4 -9 -1 -9 5 0 6 -11 26
-25 44 -13 18 -32 52 -40 76 -8 24 -19 48 -24 54 -5 6 -8 37 -7 68 1 52 -1 58
-23 63 -28 7 -81 -3 -81 -15 0 -5 7 -6 17 -3 12 5 14 3 8 -8 -5 -8 1 -5 13 5
19 17 22 17 22 3 0 -10 -6 -17 -12 -17 -9 0 -9 -3 1 -9 9 -6 2 -9 -24 -9 -26
0 -33 3 -24 9 11 7 10 9 -4 9 -12 0 -16 4 -11 13 4 6 -4 2 -18 -11 -29 -27
-46 -17 -21 12 17 20 17 20 0 7 -9 -8 -32 -21 -49 -30 -46 -23 -48 -41 -4 -34
33 5 34 4 29 -18 -3 -13 -11 -28 -17 -34 -35 -31 -96 -134 -96 -162 0 -8 -5
-11 -10 -8 -6 3 -10 1 -10 -4 0 -6 -6 -11 -13 -11 -34 0 -89 163 -90 267 -2
73 -2 73 -34 84 -23 7 -38 7 -53 -1 -24 -13 -27 -40 -3 -40 14 0 13 -4 -7 -25
-12 -13 -27 -22 -33 -18 -6 3 -2 12 8 20 11 7 14 13 8 13 -6 0 -25 -12 -42
-26 -29 -24 -32 -24 -53 -10 -12 9 -17 16 -11 16 6 0 14 7 17 16 4 11 -1 10
-24 -6 -35 -25 -46 -40 -28 -40 26 0 42 -18 31 -32 -12 -14 -13 -18 -13 -46 0
-10 -20 -29 -47 -46 -38 -22 -51 -26 -65 -17 -16 10 -18 8 -18 -18 0 -16 7
-48 15 -72 14 -39 14 -48 1 -84 -17 -42 -59 -95 -78 -95 -15 0 -2 -93 27 -191
21 -74 22 -79 5 -79 -29 0 -50 -28 -50 -66 0 -19 -12 -57 -26 -84 -19 -37 -24
-57 -19 -80 15 -70 63 -40 91 56 8 29 19 56 23 58 16 10 29 -11 33 -54 3 -25
13 -114 23 -197 17 -138 21 -153 38 -153 16 0 18 -4 11 -28 -4 -15 -8 -37 -8
-48 -1 -13 -6 -20 -13 -17 -18 7 -16 -38 3 -65 8 -12 12 -27 9 -32 -4 -6 10
-10 33 -10 38 0 40 2 46 37 6 42 6 131 -1 96 -2 -13 -9 -23 -14 -23 -5 0 -3
15 5 34 12 30 12 47 -5 142 -10 60 -22 174 -27 254 -9 134 -8 147 9 170 35 47
80 143 95 206 19 74 44 106 39 49 -2 -21 2 -41 11 -49 8 -8 14 -31 14 -51 0
-42 22 -90 46 -99 22 -8 31 1 16 16 -7 7 -12 23 -11 37 0 26 0 26 9 4 16 -39
28 -26 18 20 -17 77 -20 114 -9 121 7 5 11 -3 11 -20 0 -50 31 -238 45 -271
12 -27 12 -33 1 -33 -28 0 -38 -31 -41 -122 -1 -51 2 -103 8 -115 15 -33 42
-28 58 10 l14 32 7 -65 c13 -119 29 -190 44 -190 17 0 19 -41 2 -58 -9 -9 -9
-12 0 -12 7 0 12 -5 12 -11 0 -6 -6 -9 -12 -6 -10 3 -13 -10 -13 -49 l0 -54
46 0 47 0 8 48 c11 67 11 95 0 110 -6 8 -11 55 -13 105 -2 51 -7 117 -13 147
-5 30 -10 83 -11 118 -2 61 -2 64 39 105 58 59 91 147 102 271 5 58 5 108 -1
123 -13 34 -16 182 -4 183 6 0 11 -19 12 -42 7 -119 25 -263 34 -269 6 -3 12
-32 13 -64 3 -63 23 -90 62 -81 20 5 23 -2 43 -105 12 -61 20 -117 17 -125 -3
-7 -22 -20 -43 -29 -57 -24 -64 -40 -32 -76 15 -18 19 -33 15 -57 -8 -51 38
-131 62 -107 5 5 9 57 11 159 1 49 9 26 26 -79 8 -54 21 -105 26 -112 6 -7 9
-25 6 -39 -3 -19 2 -34 18 -50 24 -24 23 -37 -1 -27 -11 4 -14 -7 -14 -51 0
-54 1 -56 28 -56 20 0 30 7 39 28 10 22 12 72 3 92 -1 3 -1 18 0 33 1 16 -3
41 -8 55 -6 15 -12 89 -15 165 l-4 138 65 62 c35 34 71 76 78 94 9 21 14 72
15 140 l0 108 19 -65 c11 -36 24 -94 31 -130 6 -36 25 -109 42 -164 23 -76 28
-102 19 -116 -6 -9 -12 -55 -13 -100 -3 -80 -2 -83 25 -107 26 -22 30 -23 45
-9 10 9 21 16 24 16 11 0 8 -50 -5 -73 -7 -12 -13 -26 -13 -32 -1 -5 -5 -18
-9 -28 -6 -13 -2 -25 13 -41 11 -12 21 -32 21 -44 0 -15 6 -22 19 -22 13 0 24
14 37 48 23 59 24 126 2 172 -9 19 -23 89 -31 155 l-15 120 31 60 c52 102 98
276 104 394 4 66 9 98 14 88 6 -9 17 -13 29 -10 19 5 20 0 20 -60 0 -56 3 -68
20 -77 14 -7 20 -21 20 -45 0 -54 16 -85 43 -85 22 0 25 -5 31 -57 7 -63 -2
-77 -41 -62 -29 11 -50 3 -65 -24 -8 -16 -7 -23 7 -33 18 -14 15 -41 -12 -83
-17 -26 -13 -96 7 -115 18 -17 47 26 61 92 6 31 14 52 16 45 3 -9 10 -9 29 -1
13 6 26 9 27 7 3 -4 37 -205 52 -306 4 -27 12 -43 21 -43 17 0 18 -14 3 -41
-7 -14 -7 -24 0 -33 7 -9 7 -16 -1 -24 -6 -6 -12 -27 -13 -46 -2 -36 -2 -36
40 -36 42 0 43 1 55 45 7 25 10 62 6 83 -3 20 -13 75 -21 122 -8 47 -22 136
-31 199 -18 127 -19 125 48 136 21 4 47 14 58 23 25 20 50 109 50 176 0 61
-21 177 -31 171 -4 -3 -14 -2 -23 1 -12 4 -13 11 -6 24 13 24 15 69 5 100 -8
24 -8 24 -16 3 -4 -11 -6 -32 -5 -47 2 -16 -1 -23 -8 -19 -9 6 -24 10 -63 15
-7 1 -11 8 -11 17 1 9 -9 51 -22 94 -20 63 -28 77 -45 77 -11 0 -25 4 -31 8
-17 11 -61 106 -63 135 -4 57 -6 65 -13 61 -4 -3 -8 2 -8 10 0 8 4 18 10 21 6
4 5 11 -3 20 -7 8 -16 10 -23 4 -6 -5 -14 -6 -17 -2 -4 3 -7 -1 -7 -9 0 -9 -7
-21 -15 -28 -8 -7 -12 -17 -8 -23 11 -18 12 -57 1 -57 -7 0 -6 -5 1 -14 7 -9
8 -17 2 -20 -5 -3 -7 -16 -3 -28 3 -15 2 -19 -7 -14 -6 4 -2 -11 10 -33 16
-32 19 -50 14 -82 -7 -39 -8 -40 -22 -20 -15 22 -47 28 -58 11 -19 -30 -41 13
-26 51 7 21 15 24 49 24 22 0 38 3 35 8 -3 5 -15 6 -27 3 -24 -6 -54 8 -38 18
5 3 7 23 5 45 -4 32 -1 42 18 55 l23 16 -22 0 c-15 0 -27 -11 -41 -37 -22 -45
-49 -69 -113 -105 -60 -34 -81 -9 -26 30 15 11 16 17 7 34 -8 15 -8 19 0 14 6
-4 15 4 22 21 5 15 13 30 17 33 16 11 59 77 71 108 11 25 11 38 1 61 -6 17 -9
34 -6 39 3 6 -1 12 -8 15 -8 3 -17 1 -20 -6 -3 -9 -5 -8 -5 1 -1 7 -5 10 -11
7 -5 -3 -10 -3 -10 2 -1 4 -3 29 -5 54 -4 44 -3 47 23 52 15 3 27 5 28 4 1 -1
4 -14 7 -28 6 -24 4 -26 -18 -21 -29 5 -36 -22 -9 -32 38 -15 59 68 28 112
-21 30 -93 31 -119 2z m-1075 -355 c20 -21 21 -25 7 -31 -13 -5 -14 -10 -6
-27 9 -16 9 -19 -3 -14 -10 3 -14 -1 -12 -16 1 -12 3 -26 3 -30 1 -5 7 -5 14
0 6 4 4 -5 -5 -20 -10 -14 -18 -33 -18 -42 0 -9 -9 -15 -24 -15 -13 0 -30 -10
-38 -22 -14 -21 -14 -17 -6 42 6 36 11 76 13 90 1 14 3 25 4 25 1 0 4 15 6 34
2 29 17 50 36 51 3 0 16 -11 29 -25z m426 6 c10 -11 24 -16 35 -14 11 3 19 0
19 -6 0 -6 -14 -11 -31 -11 -28 0 -30 -2 -18 -17 13 -15 11 -16 -16 -10 -30 7
-30 7 -9 -10 12 -10 30 -23 40 -30 16 -11 16 -12 2 -7 -10 4 -18 1 -18 -5 0
-6 5 -11 11 -11 5 0 7 -4 4 -10 -10 -16 -25 -11 -25 8 0 10 -12 29 -27 43
l-28 24 20 -25 c23 -29 28 -97 7 -92 -8 1 -11 -2 -7 -8 3 -6 11 -8 17 -4 5 3
2 -8 -6 -25 -19 -37 -20 -37 -46 -11 -11 11 -29 20 -40 20 -11 0 -20 2 -20 5
0 11 36 81 45 87 6 5 5 8 -2 8 -19 0 -16 15 12 57 46 71 54 76 81 44z"/>
<path d="M1220 1600 c-8 -5 -10 -10 -4 -10 6 0 10 -10 10 -22 -1 -17 4 -22 19
-21 11 1 14 0 7 -3 -6 -3 -10 -10 -6 -15 3 -5 -4 -9 -15 -9 -12 0 -21 6 -21
13 0 6 -7 3 -16 -8 -21 -28 -7 -92 39 -180 6 -11 10 -40 9 -65 -1 -43 0 -44 9
-14 6 21 15 31 26 30 13 -1 19 11 26 50 8 51 9 52 48 57 49 6 56 12 40 31 -14
17 -40 11 -58 -12 -18 -21 -16 -7 1 21 18 28 21 54 11 90 -5 21 -10 25 -16 16
-9 -16 -59 -23 -59 -9 0 5 8 7 19 5 26 -5 52 42 31 55 -8 5 -16 5 -18 1 -2 -5
-11 -7 -21 -4 -10 3 -22 0 -26 -7 -4 -7 -1 -10 10 -8 10 2 20 -3 22 -9 3 -9
-6 -13 -29 -13 -18 0 -28 4 -23 8 12 9 19 42 8 42 -4 0 -15 -5 -23 -10z"/>
<path d="M288 1548 c-8 -13 -31 -74 -52 -137 -20 -63 -46 -129 -56 -147 -21
-33 -76 -159 -90 -206 -6 -18 -4 -28 3 -32 7 -2 5 -5 -4 -5 -10 -1 -23 -19
-33 -44 -19 -51 -20 -76 -2 -99 16 -22 53 -24 53 -3 0 8 -4 15 -8 15 -4 0 -3
19 2 41 6 23 8 51 7 62 -2 11 5 24 17 31 25 14 30 19 89 97 45 58 48 61 43 32
-4 -18 -9 -62 -13 -98 -6 -62 -6 -65 15 -65 12 0 24 7 27 15 4 8 11 12 16 9 6
-4 4 4 -3 17 -15 28 -24 169 -11 169 5 0 8 19 7 43 0 23 4 45 10 50 6 4 5 10
-4 16 -10 7 -12 33 -9 114 3 86 7 109 22 126 16 17 16 21 4 21 -9 0 -22 -10
-30 -22z"/>
</g>
</svg>
